<svg xmlns="http://www.w3.org/2000/svg" xmlns:xlink="http://www.w3.org/1999/xlink" viewBox="0 0 15.53 14.38"><defs><style>.cls-1{fill:none;}.cls-2{clip-path:url(#clip-path);}.cls-3{fill:#fff;}</style><clipPath id="clip-path" transform="translate(-0.11 0.01)"><rect class="cls-1" width="15.75" height="15"/></clipPath></defs><g id="Layer_2" data-name="Layer 2"><g id="Layer_1-2" data-name="Layer 1"><g class="cls-2"><rect class="cls-3" x="3.58" y="12.13" width="0.84" height="0.84"/><path class="cls-3" d="M10.19,13.51c-1.59.85-3.39-.28-4.08-.56H5.26V9.48h.28c1.06,0,2.67-2.4,2.74-3.39l0-.41a.61.61,0,0,1,.51.16A.81.81,0,0,1,9,6.58a1.87,1.87,0,0,1-.49,1.29.52.52,0,0,0-.08.59.5.5,0,0,0,.5.33h1.91a.57.57,0,0,1,.37.16.51.51,0,0,1,.15.37.5.5,0,0,1-.15.37.49.49,0,0,1-.37.16h-.81a.27.27,0,0,0-.19.08.3.3,0,0,0-.08.2.27.27,0,0,0,.27.27h.77a.47.47,0,0,1,.28.12.41.41,0,0,1,0,.56.47.47,0,0,1-.28.12h-.58a.24.24,0,0,0-.19.08.25.25,0,0,0-.09.19.27.27,0,0,0,.09.2.27.27,0,0,0,.19.08h.32a.38.38,0,0,1,.28.12.39.39,0,0,1-.28.67H10.3a.26.26,0,0,0-.19.09.24.24,0,0,0-.08.19.27.27,0,0,0,.27.28h.18A.52.52,0,0,1,10.19,13.51Zm-6.92-.33V9.24H4.7s0,3.93,0,3.93ZM12,9.32a1.15,1.15,0,0,0-.08-.41,1.16,1.16,0,0,0-.59-.59,1.15,1.15,0,0,0-.41-.08H9a2.39,2.39,0,0,0,.62-1.65,1.29,1.29,0,0,0-.4-1.16c-.39-.39-1.42-.49-1.45.26V6.1A5.56,5.56,0,0,1,5.89,8.8c-.17.17-.52.12-.74.13a.52.52,0,0,0-.45-.24H3.27a.53.53,0,0,0-.39.16.54.54,0,0,0-.17.4v3.93a.58.58,0,0,0,.56.56H4.7a.52.52,0,0,0,.45-.24H6c.85.57,3,1.3,4.32.55a1.24,1.24,0,0,0,.5-.41,1.17,1.17,0,0,0,.19-.63v0a1.06,1.06,0,0,0,.29-.27A.91.91,0,0,0,11.5,12a.83.83,0,0,0-.16-.36.89.89,0,0,0,.29-.29.8.8,0,0,0,.14-.38.92.92,0,0,0-.23-.76A1,1,0,0,0,12,9.32Z" transform="translate(-0.11 0.01)"/><path class="cls-3" d="M7.24,1.8a.4.4,0,0,0,.43-.33L7.85.82l.2.65a.41.41,0,0,0,.43.31h0l.67,0-.55.39a.41.41,0,0,0-.16.52l.24.63-.54-.4a.4.4,0,0,0-.54,0l-.53.42.21-.64a.4.4,0,0,0-.17-.51l-.57-.38ZM6,2.05l.8.53-.31.91A.41.41,0,0,0,6.61,4a.4.4,0,0,0,.53,0l.76-.59L8.67,4A.41.41,0,0,0,9.2,4a.41.41,0,0,0,.15-.52L9,2.54,9.8,2A.41.41,0,0,0,10,1.48a.4.4,0,0,0-.44-.3l-1,0L8.27.3A.42.42,0,0,0,7.84,0a.4.4,0,0,0-.42.33l-.26.93h-1a.42.42,0,0,0-.42.32A.41.41,0,0,0,6,2.05Z" transform="translate(-0.11 0.01)"/><path class="cls-3" d="M12.41,3.28a.38.38,0,0,0-.14.48l.1.28-.24-.18a.37.37,0,0,0-.49,0l-.24.19.1-.29a.38.38,0,0,0-.17-.47l-.25-.17h.3c.35,0,.41-.33.48-.59l.09.29a.37.37,0,0,0,.39.28h.32Zm.66,1-.24-.64.56-.4a.39.39,0,0,0,.15-.47.37.37,0,0,0-.4-.27l-.69,0-.21-.66a.36.36,0,0,0-.4-.28.36.36,0,0,0-.38.3l-.18.66h-.69a.39.39,0,0,0-.39.29.37.37,0,0,0,.16.46l.57.38-.22.65a.41.41,0,0,0,.64.45l.54-.43.56.41a.36.36,0,0,0,.48,0A.38.38,0,0,0,13.07,4.31Z" transform="translate(-0.11 0.01)"/><path class="cls-3" d="M15.61,5.46c-.11-.38-.6-.23-.88-.23-.11-.28-.12-.76-.52-.76s-.41.5-.5.77H13.2a.36.36,0,0,0-.37.27c-.12.37.36.53.58.71-.07.27-.34.7,0,.91S14,7,14.25,6.8c.24.15.55.55.86.3s0-.64,0-.91C15.28,6,15.75,5.83,15.61,5.46Z" transform="translate(-0.11 0.01)"/><path class="cls-3" d="M3.39,3.12a.37.37,0,0,0,.41-.28l.09-.29L4,2.84a.36.36,0,0,0,.39.3h.31l-.25.17a.38.38,0,0,0-.17.47l.1.29-.24-.19a.37.37,0,0,0-.49,0L3.38,4l.1-.28a.38.38,0,0,0-.14-.48l-.25-.17Zm-1,.15.56.4-.24.64a.37.37,0,0,0,.14.47.36.36,0,0,0,.48,0l.56-.41.54.43a.37.37,0,0,0,.48,0A.38.38,0,0,0,5,4.35L4.82,3.7l.57-.38a.37.37,0,0,0,.17-.46.38.38,0,0,0-.4-.29H4.47l-.18-.66a.36.36,0,0,0-.38-.3.36.36,0,0,0-.4.28l-.21.66-.69,0a.37.37,0,0,0-.39.28A.37.37,0,0,0,2.36,3.27Z" transform="translate(-0.11 0.01)"/><path class="cls-3" d="M2.34,6.22l.42-.28a.36.36,0,0,0,.16-.43c-.11-.38-.6-.25-.88-.27L1.9,4.75a.34.34,0,0,0-.36-.27.35.35,0,0,0-.37.26L1,5.23c-.28,0-.77-.14-.88.23s.33.55.55.73c-.08.27-.37.69,0,.91s.62-.15.86-.3c.23.16.54.57.86.33S2.41,6.49,2.34,6.22Z" transform="translate(-0.11 0.01)"/></g></g></g></svg>