<?xml version="1.0" encoding="utf-8"?>
<!-- Generator: Adobe Illustrator 24.2.1, SVG Export Plug-In . SVG Version: 6.00 Build 0)  -->
<svg version="1.1" id="Layer_1" xmlns="http://www.w3.org/2000/svg" xmlns:xlink="http://www.w3.org/1999/xlink" x="0px" y="0px"
	 viewBox="0 0 18.4 18.4" style="enable-background:new 0 0 18.4 18.4;" xml:space="preserve">
<style type="text/css">
	.st0{fill:#FFFFFF;}
</style>
<path class="st0" d="M11.4,16.7l3.3-3.4h-3.3C11.4,13.2,11.4,16.7,11.4,16.7z M4.8,13.6h2.9v0.8H4.8V13.6z M4.8,11.4h4.2v0.8H4.8
	V11.4z M4.8,9.3h8.9v0.8H4.8V9.3L4.8,9.3z M16.5,12.8c0,0.2-0.2,0.5-0.4,0.5l-4.8,5.1c-0.1,0.1-0.3,0.2-0.4,0.2h-8c-0.5,0-1-0.4-1-1
	c0,0,0,0,0,0V0.8c0-0.5,0.4-1,1-1c0,0,0,0,0,0h12.7c0.5,0,1,0.4,1,1V12.8z M15.5,12.1V0.9H3v16.6h7.4v-4.8c0-0.3,0.2-0.6,0.6-0.6
	l0,0H15.5z"/>
<polygon class="st0" points="4.8,7.4 13.7,7.4 13.7,8.3 4.8,8.3 4.8,7.4 "/>
<polygon class="st0" points="4.8,5.6 13.7,5.6 13.7,6.5 4.8,6.5 4.8,5.6 "/>
<polygon class="st0" points="4.8,3.9 13.7,3.9 13.7,4.8 4.8,4.8 4.8,3.9 "/>
<polygon class="st0" points="4.8,2.1 13.7,2.1 13.7,2.9 4.8,2.9 4.8,2 "/>
</svg>
