<svg xmlns="http://www.w3.org/2000/svg" xmlns:xlink="http://www.w3.org/1999/xlink" viewBox="0 0 16.15 16.15"><defs><style>.cls-1{fill:none;}.cls-2{clip-path:url(#clip-path);}.cls-3{fill:#fff;}</style><clipPath id="clip-path" transform="translate(-1.91 -0.35)"><rect class="cls-1" width="18.75" height="18.75"/></clipPath></defs><g id="Layer_2" data-name="Layer 2"><g id="Layer_1-2" data-name="Layer 1"><g class="cls-2"><path class="cls-3" d="M16.68,7.81h.87a7,7,0,0,0-7-6.95v.87A6.09,6.09,0,0,1,16.68,7.81Z" transform="translate(-1.91 -0.35)"/><path class="cls-3" d="M10.6,3.47v.87a3.48,3.48,0,0,1,3.48,3.47H15A4.35,4.35,0,0,0,10.6,3.47Z" transform="translate(-1.91 -0.35)"/><path class="cls-3" d="M10.6,6.07v.87a.87.87,0,0,1,.87.87h.87A1.74,1.74,0,0,0,10.6,6.07Z" transform="translate(-1.91 -0.35)"/><path class="cls-3" d="M6.75,11.66S13.51,18.42,16,16l1.23-1.23c.61-.61,1.22-1.22.61-1.84l-2.46-2.46c-.61-.61-1.23,0-1.84.62l-.61.61s-1.85.62-4.31-1.84-1.84-4.3-1.84-4.3l.62-.62C8,4.29,8.59,3.67,8,3.06L5.52.6C4.91,0,4.29.6,3.68,1.22c-1.23,1.23-.51.5-1.23,1.23C0,4.9,6.75,11.66,6.75,11.66Z" transform="translate(-1.91 -0.35)"/></g></g></g></svg>