<svg xmlns="http://www.w3.org/2000/svg" xmlns:xlink="http://www.w3.org/1999/xlink" viewBox="0 0 13.66 12.57"><defs><style>.cls-1{fill:none;}.cls-2{clip-path:url(#clip-path);}.cls-3{fill:#fff;}</style><clipPath id="clip-path" transform="translate(-0.24 -0.18)"><rect class="cls-1" width="14.25" height="12.75"/></clipPath></defs><g id="Layer_2" data-name="Layer 2"><g id="Layer_1-2" data-name="Layer 1"><g class="cls-2"><path class="cls-3" d="M12.9,5.93a.42.42,0,0,1-.29.17A.49.49,0,0,1,12.28,6L7.62,2.29a.82.82,0,0,0-.56-.2.8.8,0,0,0-.55.2L1.84,6a.45.45,0,0,1-.32.09.42.42,0,0,1-.29-.17.4.4,0,0,1-.09-.33.45.45,0,0,1,.16-.3L6.23,1.37a1.35,1.35,0,0,1,1.67,0L12.83,5.3a.45.45,0,0,1,.16.3A.4.4,0,0,1,12.9,5.93ZM11.1,11.4a.42.42,0,0,1-.13.32.4.4,0,0,1-.31.13H9.31V8.71a1.55,1.55,0,0,0-.1-.52,1.28,1.28,0,0,0-.3-.43,1.13,1.13,0,0,0-.43-.29A1.35,1.35,0,0,0,8,7.36H6.17a1.35,1.35,0,0,0-.52.11,1.25,1.25,0,0,0-.44.29,1.42,1.42,0,0,0-.29.43,1.34,1.34,0,0,0-.1.52v3.14H3.47a.4.4,0,0,1-.31-.13A.43.43,0,0,1,3,11.4V6.21L7.06,3l4,3.22Zm-2.69.45H5.72V8.71a.44.44,0,0,1,.13-.32.42.42,0,0,1,.32-.13H8a.42.42,0,0,1,.32.13.44.44,0,0,1,.13.32Zm5-7.25L8.46.67A2.38,2.38,0,0,0,7.8.3,2.3,2.3,0,0,0,7.06.18,2.34,2.34,0,0,0,6.32.3a2.48,2.48,0,0,0-.65.37L.74,4.6A1.26,1.26,0,0,0,.41,5a1.23,1.23,0,0,0-.16.49A1.3,1.3,0,0,0,.29,6a1.21,1.21,0,0,0,.23.47A1.32,1.32,0,0,0,1.58,7a1.2,1.2,0,0,0,.55-.13V11.4a1.34,1.34,0,0,0,.1.52,1.4,1.4,0,0,0,.29.44,1.46,1.46,0,0,0,.44.29,1.25,1.25,0,0,0,.51.1h7.19a1.29,1.29,0,0,0,.51-.1,1.46,1.46,0,0,0,.44-.29,1.6,1.6,0,0,0,.29-.44,1.34,1.34,0,0,0,.1-.52V6.87a1.26,1.26,0,0,0,.71.12,1.24,1.24,0,0,0,.9-.51A1.21,1.21,0,0,0,13.84,6a1.3,1.3,0,0,0,0-.52A1.23,1.23,0,0,0,13.72,5,1.41,1.41,0,0,0,13.39,4.6Z" transform="translate(-0.24 -0.18)"/></g></g></g></svg>