<svg xmlns="http://www.w3.org/2000/svg" xmlns:xlink="http://www.w3.org/1999/xlink" viewBox="0 0 13.5 14.89"><defs><style>.cls-1{fill:none;}.cls-2{clip-path:url(#clip-path);}.cls-3{fill:#fff;}</style><clipPath id="clip-path" transform="translate(0 0)"><rect class="cls-1" width="13.5" height="15"/></clipPath></defs><g id="Layer_2" data-name="Layer 2"><g id="Layer_1-2" data-name="Layer 1"><g class="cls-2"><path class="cls-3" d="M12.66,14.39H2.24A.25.25,0,0,1,2,14.14a.24.24,0,0,1,.1-.19l.61-.46a.75.75,0,0,0,.3-.55l.39-5.53a2.22,2.22,0,0,1,1-1.68l2-1.41A1.11,1.11,0,0,0,6.55,5a1.08,1.08,0,0,0,.89.48.75.75,0,0,0,.75.74H9.68a.74.74,0,0,0,.72-.57l.14.1a2.24,2.24,0,0,1,1,1.68L11.89,13a.78.78,0,0,0,.3.54l.61.46a.25.25,0,0,1,.1.2A.23.23,0,0,1,12.66,14.39ZM3.48,3.21a1.2,1.2,0,0,0,.71-.35l.56-.56a.29.29,0,0,1,.18-.07H7.2A1,1,0,0,1,8,3.65L7.31,5A.63.63,0,0,1,7,4.71a.55.55,0,0,1,0-.54.69.69,0,0,0-.62-.95H5.21v.5H6.37L4.07,5.32a2.26,2.26,0,0,0-.29.23,1.11,1.11,0,0,0-.3-.08ZM9.34.49,8.92,1.73H8.19a.74.74,0,0,0-.41.13,1.44,1.44,0,0,0-.58-.13H6L5.56.49Zm.34,3.23H8.55a1.71,1.71,0,0,0,.1-.5h1a.25.25,0,0,1,0,.5Zm.25,1.74a.25.25,0,0,1-.25.25H8.19a.26.26,0,0,1-.25-.25.25.25,0,0,1,.25-.25H9.68A.25.25,0,0,1,9.93,5.46Zm-.25-.75H8.19a.69.69,0,0,0-.2,0l.29-.52h1.4a.25.25,0,1,1,0,.49Zm0-2.48a.25.25,0,0,1,0,.5H8.57a1.31,1.31,0,0,0-.28-.5ZM3,5.46H1.74V3.22H3Zm10.13,8.09-.62-.46a.25.25,0,0,1-.1-.18L12,7.37a2.71,2.71,0,0,0-1.17-2l-.57-.39a.76.76,0,0,0,.16-.46.74.74,0,0,0-.19-.5.74.74,0,0,0,0-1,.74.74,0,0,0-.55-1.24H9.44L9.91.33a.24.24,0,0,0,0-.23.26.26,0,0,0-.2-.1H5.21A.26.26,0,0,0,5,.1.27.27,0,0,0,5,.33l.47,1.4H4.93A.75.75,0,0,0,4.4,2l-.56.56a.75.75,0,0,1-.53.22H0v.49H1.24V5.46H0V6H3.41A2.63,2.63,0,0,0,2.9,7.37l-.4,5.54a.25.25,0,0,1-.1.18l-.61.46a.73.73,0,0,0-.3.59.75.75,0,0,0,.74.75H12.66a.75.75,0,0,0,.45-1.34Z" transform="translate(0 0)"/><path class="cls-3" d="M10.18,10.67H4.72v-.08L7.45,9.45l2.73,1.14Zm-.5,2.48H8.94v-2h.74Zm-1.24,0H7.7v-2h.74Zm-1.24,0H6.46v-2H7.2ZM6,13.15H5.21v-2H6ZM6.7,8.68a.75.75,0,0,1,.75-.74.74.74,0,0,1,.74.74v.54L7.54,9a.31.31,0,0,0-.19,0l-.65.27V8.68Zm3.82,1.51L8.69,9.43V8.68a1.23,1.23,0,0,0-1-1.21V6.7H7.2v.77a1.23,1.23,0,0,0-1,1.21v.75l-1.84.76a.25.25,0,0,0-.15.23v.5a.25.25,0,0,0,.25.25h.25v2h-.5v.5h6.45v-.5h-.49v-2h.25a.25.25,0,0,0,.24-.25v-.5A.24.24,0,0,0,10.52,10.19Z" transform="translate(0 0)"/><path class="cls-3" d="M12.05,5.39,12.38,5l-.25-.2-.32-.22L11.53,5l.31.22A1.92,1.92,0,0,1,12.05,5.39Z" transform="translate(0 0)"/><path class="cls-3" d="M13,9.69l.5,0-.2-2.79a2.88,2.88,0,0,0-.44-1.3l-.42.27a2.29,2.29,0,0,1,.37,1.07Z" transform="translate(0 0)"/><rect class="cls-3" x="-0.01" y="10.3" width="3.24" height="0.5" transform="matrix(0.07, -1, 1, 0.07, -9.03, 11.4)"/><rect class="cls-3" x="1.41" y="7.81" width="0.75" height="0.5" transform="translate(-6.39 9.27) rotate(-85.91)"/></g></g></g></svg>