<svg xmlns="http://www.w3.org/2000/svg" xmlns:xlink="http://www.w3.org/1999/xlink" viewBox="0 0 11.9 18.42"><defs><style>.cls-1{fill:none;}.cls-2{clip-path:url(#clip-path);}.cls-3{fill:#fff;}</style><clipPath id="clip-path" transform="translate(-0.31 0)"><rect class="cls-1" width="12.75" height="18.75"/></clipPath></defs><g id="Layer_2" data-name="Layer 2"><g id="Layer_1-2" data-name="Layer 1"><g class="cls-2"><path class="cls-3" d="M6.22,8.2A2.36,2.36,0,1,1,8.57,5.84,2.36,2.36,0,0,1,6.22,8.2Zm0-7.38A5,5,0,0,0,1.94,8.29l3.84,6.65h0l.48.82,4.31-7.47A5,5,0,0,0,6.26.82Z" transform="translate(-0.31 0)"/><path class="cls-3" d="M6.22,3.7A2.14,2.14,0,1,0,8.36,5.84,2.15,2.15,0,0,0,6.22,3.7Zm0,4.71A2.57,2.57,0,1,1,8.79,5.84,2.58,2.58,0,0,1,6.22,8.41Zm-.13-8a5.35,5.35,0,0,0-4.63,8l4.48,7.76a.37.37,0,0,0,.64,0l4.48-7.76a5.35,5.35,0,0,0-4.63-8Zm.17,16.39a.78.78,0,0,1-.69-.4L1.09,8.66a5.73,5.73,0,0,1,0-5.77A5.71,5.71,0,0,1,6.09,0h.34a5.72,5.72,0,0,1,5,2.89,5.73,5.73,0,0,1,0,5.77L7,16.42A.78.78,0,0,1,6.26,16.82Z" transform="translate(-0.31 0)"/><path class="cls-3" d="M6.26,18.42c-2.64,0-4.64-.8-4.64-1.85,0-.86,1.32-1.56,3.35-1.79l0,.43c-1.93.21-3,.86-3,1.36,0,.67,1.72,1.42,4.2,1.42s4.2-.75,4.2-1.42c0-.5-1-1.15-3-1.36l0-.43c2,.23,3.34.93,3.34,1.79C10.89,17.62,8.9,18.42,6.26,18.42Z" transform="translate(-0.31 0)"/><polygon class="cls-3" points="5.48 15.15 5.48 15.15 5.48 14.72 5.48 15.15"/></g></g></g></svg>