<svg xmlns="http://www.w3.org/2000/svg" xmlns:xlink="http://www.w3.org/1999/xlink" viewBox="0 0 18.74 14.04"><defs><style>.cls-1{fill:none;}.cls-2{clip-path:url(#clip-path);}.cls-3{fill:#fff;}</style><clipPath id="clip-path" transform="translate(0 0)"><rect class="cls-1" width="18.75" height="14.25"/></clipPath></defs><g id="Layer_2" data-name="Layer 2"><g id="Layer_1-2" data-name="Layer 1"><g class="cls-2"><path class="cls-3" d="M9.43,9.66A1.87,1.87,0,0,1,8,9.08L6.59,7.77l-.08-.06s0,0,0,0l-.21.2L2,12q-.27.27-.48.45l-.23.22a0,0,0,0,0,0,.06c.11.12.21.11.39.11h15.6a.25.25,0,0,0,.26-.12,0,0,0,0,0,0-.06l-5-4.76-.23-.24a0,0,0,0,0-.07,0c-.47.43-.94.88-1.41,1.32a3.54,3.54,0,0,1-.41.34A1.87,1.87,0,0,1,9.43,9.66ZM1.19,11.15l.37-.36,3.6-3.44L5.58,7s0,0,0-.08l-.16-.15L1.38,3l-.22-.2h0v8.38S1.16,11.17,1.19,11.15ZM17.58,2.7h0c-.13.1-.23.22-.36.33L13.12,6.83l0,0s0,0,0,0L13.2,7c.75.71,1.57,1.47,2.43,2.3l.45.42.42.4c.11.11.21.21.32.3l.5.48.24.23h0V2.72h0ZM9.09,8.44a.69.69,0,0,0,.7-.14c1.64-1.52,3.26-3,4.88-4.51l2.77-2.57s0,0,0,0a.1.1,0,0,0-.09,0H1.5a.28.28,0,0,0-.23.09,0,0,0,0,0,0,0l.17.15L3.53,3.34l4.84,4.5.43.39A.89.89,0,0,0,9.09,8.44ZM17.28,14H1.45l-.26,0a1.53,1.53,0,0,1-1.1-1A2.15,2.15,0,0,1,0,12.58V1.44c0-.08,0-.16,0-.22A2.33,2.33,0,0,1,.11,1,1.53,1.53,0,0,1,1.23,0l.15,0,.2,0H17.33l.12,0a1.18,1.18,0,0,1,.36.1,1.51,1.51,0,0,1,.92,1.26c0,.09,0,.18,0,.27,0,2.8,0,5.6,0,8.6,0,.64,0,1.31,0,2,0,.21,0,.35,0,.42a1.53,1.53,0,0,1-.63,1.09,1.45,1.45,0,0,1-.6.25Z" transform="translate(0 0)"/></g></g></g></svg>