<svg xmlns="http://www.w3.org/2000/svg" xmlns:xlink="http://www.w3.org/1999/xlink" viewBox="0 0 5.99 11.96"><defs><style>.cls-1{fill:none;}.cls-2{clip-path:url(#clip-path);}.cls-3{fill:#fff;}</style><clipPath id="clip-path" transform="translate(0.01 -0.02)"><rect class="cls-1" width="6" height="12.75"/></clipPath></defs><g id="Layer_2" data-name="Layer 2"><g id="Layer_1-2" data-name="Layer 1"><g class="cls-2"><path class="cls-3" d="M2.28,4.87c-.18.48-.37.91-.51,1.35C1.29,7.63.81,9,.38,10.47c-.24.82.1,1.38.83,1.48a2.21,2.21,0,0,0,.81,0c1.59-.36,2.3-1.66,3-2.92a2.59,2.59,0,0,0-.41.4,3.7,3.7,0,0,1-1.43,1,.37.37,0,0,1-.31,0s0-.18,0-.27A2.55,2.55,0,0,1,3,9.73c.62-1.5,1.25-3,1.85-4.51A1.76,1.76,0,0,0,5,4.38a1.11,1.11,0,0,0-1.23-.85A4.36,4.36,0,0,0,.05,5.8,1.3,1.3,0,0,0,0,6.05,3.94,3.94,0,0,1,2.28,4.87Z" transform="translate(0.01 -0.02)"/><path class="cls-3" d="M6,1.6a1.62,1.62,0,0,1-.12.61,1.6,1.6,0,0,1-.35.51A1.47,1.47,0,0,1,5,3.06a1.58,1.58,0,0,1-.61.12,1.53,1.53,0,0,1-.6-.12,1.51,1.51,0,0,1-.52-.34,1.57,1.57,0,0,1-.34-.51A1.61,1.61,0,0,1,2.94,1,1.57,1.57,0,0,1,3.28.48,1.51,1.51,0,0,1,3.8.14,1.53,1.53,0,0,1,4.4,0,1.58,1.58,0,0,1,5,.14a1.47,1.47,0,0,1,.51.34A1.6,1.6,0,0,1,5.87,1,1.62,1.62,0,0,1,6,1.6Z" transform="translate(0.01 -0.02)"/></g></g></g></svg>