<svg xmlns="http://www.w3.org/2000/svg" xmlns:xlink="http://www.w3.org/1999/xlink" viewBox="0 0 16.45 12.5"><defs><style>.cls-1{fill:none;}.cls-2{clip-path:url(#clip-path);}.cls-3{fill:#fff;}</style><clipPath id="clip-path" transform="translate(-0.02 0)"><rect class="cls-1" width="16.5" height="12.75"/></clipPath></defs><g id="Layer_2" data-name="Layer 2"><g id="Layer_1-2" data-name="Layer 1"><g class="cls-2"><polygon class="cls-3" points="9.84 0 6.61 0 6.28 3.95 10.17 3.95 9.84 0"/><path class="cls-3" d="M13.83.23A.33.33,0,0,0,13.52,0h-3l.33,4h4.21L13.83.23Z" transform="translate(-0.02 0)"/><path class="cls-3" d="M10.58,8.56l-.33-3.95h-4l-.33,4h2v3.29H6.28a.33.33,0,1,0,0,.65h3.94a.33.33,0,1,0,0-.65H8.58V8.56Z" transform="translate(-0.02 0)"/><path class="cls-3" d="M0,8.12a.33.33,0,0,0,0,.3.34.34,0,0,0,.26.14H5.26l.33-3.95H1.21Z" transform="translate(-0.02 0)"/><path class="cls-3" d="M3,0a.33.33,0,0,0-.31.23L1.43,4H5.64L6,0Z" transform="translate(-0.02 0)"/><path class="cls-3" d="M16.46,8.12,15.29,4.61H10.91l.33,4h4.91a.31.31,0,0,0,.26-.14A.33.33,0,0,0,16.46,8.12Z" transform="translate(-0.02 0)"/></g></g></g></svg>