<svg xmlns="http://www.w3.org/2000/svg" xmlns:xlink="http://www.w3.org/1999/xlink" viewBox="0 0 8.01 11.82"><defs><style>.cls-1{fill:none;}.cls-2{clip-path:url(#clip-path);}.cls-3{fill:#fff;}.cls-4{fill:#b8b8b8;}</style><clipPath id="clip-path" transform="translate(-0.01 -0.46)"><rect class="cls-1" width="8.25" height="12.75"/></clipPath></defs><g id="Layer_2" data-name="Layer 2"><g id="Layer_1-2" data-name="Layer 1"><g class="cls-2"><path class="cls-3" d="M6.89,1.82C5.31.13,1.19,0,.23,3A5.33,5.33,0,0,0,0,4.45l1.86,0c.13-1.2.76-2,2.06-1.83.75.11,1.4.71,1.11,1.47S3.89,4.6,3,5.65,2.52,8.5,2.54,9.13l1.7,0a9.6,9.6,0,0,1,.28-2c.23-.8,1.21-1.12,1.85-1.41A2.38,2.38,0,0,0,6.89,1.82ZM4.35,10.31a1.08,1.08,0,0,1,0,1.33,1.1,1.1,0,0,1-2-.79v-.26A1.12,1.12,0,0,1,4.35,10.31Z" transform="translate(-0.01 -0.46)"/><path class="cls-4" d="M7.31,3a2.77,2.77,0,0,0-.61-1,3.17,3.17,0,0,0-1-.67,3.73,3.73,0,0,0-.56-.2L4.88,1.1,4.58,1A4.84,4.84,0,0,0,3.38,1,3.4,3.4,0,0,0,2,1.32,3.25,3.25,0,0,0,1,2.16a2.57,2.57,0,0,0-.24.35A3.19,3.19,0,0,0,.49,3a2.64,2.64,0,0,0-.1.3,3.38,3.38,0,0,0-.08.34c0,.22-.09.46-.12.68h0l.56,0,.56,0,.28,0h.13a.13.13,0,0,0,0-.06V4.09c0-.1,0-.21.07-.31a2.27,2.27,0,0,1,.26-.6,1.69,1.69,0,0,1,.46-.5,2.28,2.28,0,0,1,.3-.17,2,2,0,0,1,.88-.14H4l.28.06a2,2,0,0,1,.51.25,1.33,1.33,0,0,1,.41.44,1.11,1.11,0,0,1,.12.3.93.93,0,0,1,0,.33.87.87,0,0,1-.06.32.86.86,0,0,1-.14.29,1.07,1.07,0,0,1-.22.25,2,2,0,0,1-.25.18l-.47.24a3,3,0,0,0-.42.26,3.38,3.38,0,0,0-.35.31l-.08.09-.08.09,0,0,0,0,0,0L3.14,6a1.74,1.74,0,0,0-.2.41,2.61,2.61,0,0,0-.14.55,5.42,5.42,0,0,0-.06.58c0,.39,0,.79,0,1.19v.15h0v.05H2.9l.41,0c.27,0,.56,0,.83.08V9c0-.25,0-.5,0-.75s0-.37.07-.56l0-.14,0-.13a.59.59,0,0,1,0-.14l0-.07a.64.64,0,0,1,0-.07,1.34,1.34,0,0,1,.12-.3,1.51,1.51,0,0,1,.18-.26,2.12,2.12,0,0,1,.45-.4,6.92,6.92,0,0,1,1-.52,2.06,2.06,0,0,0,.44-.24A1.86,1.86,0,0,0,7.4,4.13,2.26,2.26,0,0,0,7.31,3ZM8,4.36a2.8,2.8,0,0,1-.13.41l-.05.1a.31.31,0,0,1,0,.1,1.18,1.18,0,0,1-.11.19A2.29,2.29,0,0,1,7,5.8,1.76,1.76,0,0,1,6.64,6l-.19.1-.18.08c-.23.1-.46.19-.66.3l-.3.17-.15.12L5,6.93a1,1,0,0,0-.22.32v0l0,.06a.56.56,0,0,1,0,.12,2.17,2.17,0,0,1-.07.24c-.08.31-.15.62-.19.86S4.37,9,4.36,9s0,.15-.12.13l0,0,0,0-.46,0H2.49a2.11,2.11,0,0,1,0-.26l0-.22,0-.44a8.42,8.42,0,0,1,0-.87,4.9,4.9,0,0,1,.08-.77,2.74,2.74,0,0,1,.09-.39,3,3,0,0,1,.16-.37l0-.09.06-.09.06-.08,0,0,0,0a1.93,1.93,0,0,1,.27-.3,3.33,3.33,0,0,1,.63-.49l.38-.2.18-.1a.78.78,0,0,0,.15-.1.68.68,0,0,0,.22-.23.08.08,0,0,0,0,0l0,0V4l0,0a1.1,1.1,0,0,0,0-.16.43.43,0,0,0,0-.16.83.83,0,0,0,0-.15.8.8,0,0,0-.18-.27,1.25,1.25,0,0,0-.6-.32l-.13,0H3.51A1.59,1.59,0,0,0,3,3a1.33,1.33,0,0,0-.41.29,1.79,1.79,0,0,0-.27.44A1.78,1.78,0,0,0,2.21,4a.54.54,0,0,0,0,.1l0,.11v0h0v0l0,.12,0,.23H1.59l-.29,0-.54,0c-.33,0-.58,0-.64-.06S0,4.53,0,4.45l0,0a.19.19,0,0,1,0-.07,3.62,3.62,0,0,1,0-.57,3.72,3.72,0,0,1,.18-.88,3.2,3.2,0,0,1,.17-.43A3.84,3.84,0,0,1,.6,2.07a3.35,3.35,0,0,1,.61-.69A3.29,3.29,0,0,1,2,.88,3.72,3.72,0,0,1,2.9.56a4.5,4.5,0,0,1,1-.1,5.29,5.29,0,0,1,1,.08,5.39,5.39,0,0,1,1,.27,4,4,0,0,1,1,.53l.11.09,0,0,0,.05a.47.47,0,0,1,.1.1.47.47,0,0,1,.1.1l.18.21a1.88,1.88,0,0,1,.16.23,1.4,1.4,0,0,1,.15.24l.07.12.06.13A5.05,5.05,0,0,1,8,3.2,2.67,2.67,0,0,1,8,4.36ZM4.72,10.58a1.27,1.27,0,0,1,.07.55,1.11,1.11,0,0,1-.17.53l0,.06,0,.06,0,.06,0,0,0,0a2.11,2.11,0,0,1-.23.19l-.06,0-.06,0h0l0,0L4,12.2a1.31,1.31,0,0,1-.27.06,1.39,1.39,0,0,1-.64,0,1.11,1.11,0,0,1-.29-.14.84.84,0,0,1-.24-.22.74.74,0,0,1-.12-.16l0,0,0-.05a.19.19,0,0,1,0-.07l0-.06,0-.07v-.14a.17.17,0,0,1,0-.07V11a.71.71,0,0,1,0-.14s0,0,.05,0a.08.08,0,0,1,.08,0,.3.3,0,0,0,0,.1s0,.07,0,.1a1.32,1.32,0,0,0,.09.3,1.45,1.45,0,0,0,.17.26,1,1,0,0,0,.51.28,1.25,1.25,0,0,0,.61-.06,1.35,1.35,0,0,0,.26-.15l0,0,0,0,0,0,0,0,0,0a.25.25,0,0,0,0-.07.83.83,0,0,0,.13-.59,1.08,1.08,0,0,0-.09-.29l-.08-.13,0,0,0,0,0,0,0,0a.84.84,0,0,0-.35-.22,1.05,1.05,0,0,0-.43,0l-.24.05a1.13,1.13,0,0,0-.28.12l-.22.19,0,0,0,0,0,0s0,0-.09,0-.05-.07,0-.09v-.07l0-.07a.75.75,0,0,1,.07-.12,1.17,1.17,0,0,1,.69-.52,1.31,1.31,0,0,1,.89.08l.23.14a1.14,1.14,0,0,1,.19.19l0,0,0,0h0v0l.07.11A1.33,1.33,0,0,1,4.72,10.58Z" transform="translate(-0.01 -0.46)"/></g></g></g></svg>