<svg xmlns="http://www.w3.org/2000/svg" xmlns:xlink="http://www.w3.org/1999/xlink" viewBox="0 0 18.42 18.42"><defs><style>.cls-1{fill:none;}.cls-2{clip-path:url(#clip-path);}.cls-3{fill:#fff;}</style><clipPath id="clip-path" transform="translate(0 0)"><rect class="cls-1" width="18.75" height="18.75"/></clipPath></defs><g id="Layer_2" data-name="Layer 2"><g id="Layer_1-2" data-name="Layer 1"><g class="cls-2"><path class="cls-3" d="M9.21,1.08a8.13,8.13,0,1,0,8.13,8.13A8.14,8.14,0,0,0,9.21,1.08Zm0,17.34a9.21,9.21,0,1,1,9.21-9.21A9.22,9.22,0,0,1,9.21,18.42Z" transform="translate(0 0)"/><path class="cls-3" d="M6.23,13.18a.51.51,0,0,1-.35-.13.54.54,0,0,1-.06-.76l3-3.43a.54.54,0,1,1,.82.71L6.64,13A.55.55,0,0,1,6.23,13.18Z" transform="translate(0 0)"/><path class="cls-3" d="M9.21,9.75a.54.54,0,0,1-.54-.54v-6a.54.54,0,0,1,1.08,0v6A.54.54,0,0,1,9.21,9.75Z" transform="translate(0 0)"/><path class="cls-3" d="M10.66,9.21a1.46,1.46,0,0,1-.11.55,1.52,1.52,0,0,1-.79.79,1.43,1.43,0,0,1-1.1,0,1.4,1.4,0,0,1-.47-.32,1.25,1.25,0,0,1-.31-.47,1.43,1.43,0,0,1,0-1.1,1.4,1.4,0,0,1,.78-.78,1.43,1.43,0,0,1,1.1,0,1.25,1.25,0,0,1,.47.31,1.4,1.4,0,0,1,.32.47A1.46,1.46,0,0,1,10.66,9.21Z" transform="translate(0 0)"/></g></g></g></svg>